<svg width="128" height="42" fill="none" xmlns="http://www.w3.org/2000/svg"><path d="m16.44.964 4.921 7.79c.79 1.252-.108 2.883-1.588 2.883H17.76V23.3h-2.91V.088c.61 0 1.22.292 1.59.876z" fill="#8FBCFA"/><path d="M8.342 8.755 13.263.964a1.864 1.864 0 0 1 1.59-.876V23.3a4.87 4.87 0 0 0-.252-.006c-.99 0-1.907.311-2.658.842V11.637H9.93c-1.48 0-2.38-1.631-1.589-2.882z" fill="#468BFF"/><path d="M30.278 31H18.031a4.596 4.596 0 0 0 1.219-2.91h22.577c0 .61-.292 1.22-.875 1.59L33.16 34.6c-1.251.791-2.883-.108-2.883-1.588V31z" fill="#FDBB11"/><path d="m33.16 21.581 7.79 4.921c.585.369.876.979.876 1.589H19.25a4.619 4.619 0 0 0-.858-2.91h11.887V23.17c0-1.48 1.631-2.38 2.882-1.589z" fill="#F6D785"/><path d="m8.24 34.25-7.107 7.108a1.864 1.864 0 0 0 1.742.504l8.989-2.03c1.443-.325 1.961-2.114.915-3.16l-1.423-1.423 5.356-5.356a2.805 2.805 0 0 0 0-3.966l-.074-.075L8.24 34.25z" fill="#FF9A9D"/><path d="m7.243 31.135 5.355-5.356a2.805 2.805 0 0 1 3.967 0l.074.074-8.397 8.397-7.108 7.108a1.864 1.864 0 0 1-.504-1.742l2.029-8.989c.325-1.444 2.115-1.961 3.161-.915l1.423 1.423z" fill="#FE363B"/><path d="m127.496 15.443-9.628 22.905h-4.183l3.369-7.747-6.232-15.158h4.407l4.014 10.863 4.07-10.863h4.183zM109.017 11.6v19.394h-3.93V11.601h3.93zM99.548 13.584c-.692 0-1.273-.215-1.74-.645-.45-.45-.674-1.002-.674-1.657s.225-1.197.674-1.628c.467-.449 1.048-.673 1.74-.673s1.263.224 1.712.673c.468.43.702.899.702 1.554s-.234 1.281-.702 1.73c-.449.431-1.02.646-1.712.646zm1.937 1.853v15.557h-3.93V15.437h3.93zM87.516 27.373l3.93-11.93h4.182l-5.754 15.551h-4.772l-5.726-15.55h4.21l3.93 11.929zM61.28 23.162c0-1.572.308-2.966.925-4.183.637-1.216 1.488-2.152 2.555-2.807 1.085-.655 2.292-.982 3.62-.982 1.16 0 2.171.234 3.032.701.88.468 1.581 1.058 2.105 1.769v-2.218h3.958v15.551h-3.957v-2.274c-.506.73-1.207 1.338-2.106 1.825-.88.468-1.9.702-3.06.702a6.679 6.679 0 0 1-3.592-1.01c-1.067-.675-1.918-1.62-2.555-2.836-.617-1.235-.926-2.648-.926-4.238zm12.237.056c0-.955-.187-1.769-.56-2.442-.375-.693-.88-1.217-1.517-1.572a3.973 3.973 0 0 0-2.049-.562 3.98 3.98 0 0 0-2.02.534c-.618.355-1.124.88-1.517 1.572-.374.673-.561 1.478-.561 2.413 0 .936.187 1.76.561 2.47.393.693.899 1.226 1.516 1.6.636.375 1.31.562 2.021.562.73 0 1.413-.178 2.05-.533a4.083 4.083 0 0 0 1.515-1.572c.374-.693.561-1.516.561-2.47zM56.263 18.67v7.523c0 .524.122.908.365 1.15.262.225.692.338 1.291.338h1.825v3.312h-2.47c-3.313 0-4.969-1.61-4.969-4.828V18.67h-1.853v-3.228h1.853v-3.845h3.958v3.845h3.48v3.228h-3.48z" fill="#2C2F32"/></svg>