<svg width="3337" height="400" viewBox="0 0 3337 400" fill="none" xmlns="http://www.w3.org/2000/svg">
<path d="M786.095 314.605C757.592 314.605 734.204 308.395 715.998 295.975C697.758 283.556 686.746 265.818 682.928 242.729L734.068 229.417C736.114 239.778 739.591 247.91 744.432 253.811C749.274 259.746 755.308 263.931 762.502 266.47C769.696 268.975 777.571 270.244 786.095 270.244C799.016 270.244 808.562 267.946 814.733 263.383C820.904 258.785 824.006 253.124 824.006 246.297C824.006 239.47 821.074 234.255 815.176 230.55C809.278 226.844 799.902 223.825 786.947 221.458L774.605 219.228C759.331 216.277 745.353 212.195 732.738 207.014C720.09 201.833 709.964 194.663 702.327 185.503C694.69 176.342 690.872 164.506 690.872 150.028C690.872 128.139 698.815 111.363 714.669 99.6634C730.556 87.9985 751.387 82.1318 777.264 82.1318C801.641 82.1318 821.927 87.6212 838.087 98.5312C854.247 109.476 864.816 123.816 869.828 141.554L818.245 157.507C815.892 146.288 811.119 138.295 803.925 133.56C796.732 128.825 787.833 126.458 777.264 126.458C766.695 126.458 758.581 128.311 753.024 132.016C747.433 135.721 744.637 140.833 744.637 147.318C744.637 154.419 747.569 159.669 753.467 163.065C759.331 166.462 767.275 169.069 777.264 170.819L789.606 173.049C806.073 175.999 820.972 179.91 834.337 184.817C847.701 189.688 858.27 196.653 866.078 205.676C873.851 214.699 877.772 226.913 877.772 242.283C877.772 265.338 869.453 283.178 852.849 295.735C836.246 308.326 813.983 314.605 786.06 314.605H786.095Z" fill="#EFEFEF"/>
<path d="M974.598 313.712C957.552 313.712 942.653 309.801 929.868 301.944C917.083 294.122 907.161 283.246 900.104 269.351C893.047 255.457 889.535 239.469 889.535 221.457V90.1592H945.073V217.031C945.073 233.602 949.096 246.022 957.211 254.29C965.291 262.558 976.814 266.71 991.815 266.71C1008.86 266.71 1022.09 261.015 1031.5 249.624C1040.91 238.234 1045.61 222.349 1045.61 201.936V90.1592H1101.15V310.178H1046.5V281.359H1038.56C1035.05 288.77 1028.43 296.009 1018.72 303.111C1009.03 310.213 994.304 313.746 974.632 313.746L974.598 313.712Z" fill="#EFEFEF"/>
<path d="M1140.8 398.896V90.1551H1195.46V116.778H1203.4C1208.38 108.201 1216.19 100.585 1226.75 93.929C1237.32 87.2732 1252.46 83.9453 1272.17 83.9453C1289.79 83.9453 1306.12 88.3025 1321.09 97.0168C1336.09 105.731 1348.13 118.528 1357.23 135.373C1366.33 152.219 1370.9 172.632 1370.9 196.579V203.681C1370.9 227.628 1366.33 248.042 1357.23 264.887C1348.13 281.733 1336.06 294.53 1321.09 303.244C1306.09 311.958 1289.79 316.315 1272.17 316.315C1258.94 316.315 1247.86 314.772 1238.89 311.65C1229.93 308.562 1222.73 304.548 1217.28 299.676C1211.82 294.804 1207.49 289.864 1204.29 284.82H1196.34V398.827H1140.8V398.896ZM1255.43 267.598C1272.78 267.598 1287.1 262.04 1298.42 250.958C1309.74 239.877 1315.4 223.683 1315.4 202.378V197.952C1315.4 176.646 1309.67 160.453 1298.21 149.371C1286.76 138.29 1272.51 132.732 1255.46 132.732C1238.41 132.732 1224.16 138.29 1212.71 149.371C1201.25 160.453 1195.52 176.646 1195.52 197.952V202.378C1195.52 223.683 1201.25 239.877 1212.71 250.958C1224.16 262.04 1238.41 267.598 1255.46 267.598H1255.43Z" fill="#EFEFEF"/>
<path d="M1499.64 316.384C1477.89 316.384 1458.73 311.718 1442.12 302.421C1425.52 293.089 1412.6 279.949 1403.33 262.932C1394.09 245.915 1389.45 225.879 1389.45 202.824V197.506C1389.45 174.451 1393.98 154.415 1403.12 137.398C1412.22 120.381 1425.01 107.241 1441.48 97.9088C1457.94 88.6112 1477.04 83.9453 1498.79 83.9453C1520.54 83.9453 1538.91 88.7485 1554.77 98.3548C1570.62 107.961 1583 121.273 1591.79 138.29C1600.62 155.307 1605.02 175.034 1605.02 197.506V216.581H1445.87C1446.45 231.677 1452.04 243.925 1462.61 253.394C1473.18 262.863 1486.14 267.598 1501.41 267.598C1516.69 267.598 1528.45 264.201 1535.78 257.408C1543.11 250.615 1548.7 243.067 1552.52 234.799L1597.93 258.746C1593.81 266.431 1587.87 274.802 1580.07 283.825C1572.26 292.849 1561.93 300.534 1548.97 306.881C1536.05 313.228 1519.58 316.418 1499.61 316.418L1499.64 316.384ZM1446.28 174.862H1548.56C1547.37 162.134 1542.32 151.944 1533.36 144.259C1524.39 136.574 1512.7 132.732 1498.31 132.732C1483.92 132.732 1471.41 136.574 1462.61 144.259C1453.78 151.944 1448.36 162.168 1446.32 174.862H1446.28Z" fill="#EFEFEF"/>
<path d="M1632.33 310.177V90.1576H1686.98V114.997H1694.92C1698.16 106.111 1703.52 99.6267 1711.02 95.4754C1718.52 91.3241 1727.24 89.2656 1737.23 89.2656H1763.69V138.944H1736.35C1722.23 138.944 1710.64 142.718 1701.54 150.266C1692.43 157.814 1687.87 169.41 1687.87 185.089V310.177H1632.33Z" fill="#EFEFEF"/>
<path d="M1784.83 310.178V90.1588H1839.48V114.106H1847.42C1851.24 106.73 1857.55 100.28 1866.38 94.8247C1875.21 89.3697 1886.8 86.625 1901.19 86.625C1916.77 86.625 1929.25 89.6441 1938.66 95.7167C1948.07 101.789 1955.26 109.68 1960.27 119.458H1968.22C1973.19 109.989 1980.25 102.167 1989.39 95.9569C1998.49 89.7471 2011.41 86.6593 2028.19 86.6593C2041.69 86.6593 2053.96 89.5412 2065.01 95.305C2076.02 101.069 2084.85 109.783 2091.46 121.482C2098.08 133.181 2101.39 147.865 2101.39 165.637V310.247H2045.85V169.617C2045.85 157.506 2042.74 148.414 2036.61 142.342C2030.44 136.269 2021.74 133.25 2010.59 133.25C1997.95 133.25 1988.2 137.333 1981.27 145.464C1974.35 153.595 1970.91 165.191 1970.91 180.287V310.281H1915.37V169.651C1915.37 157.54 1912.27 148.449 1906.13 142.376C1899.96 136.303 1891.27 133.284 1880.12 133.284C1867.47 133.284 1857.72 137.367 1850.8 145.498C1843.88 153.629 1840.43 165.225 1840.43 180.321V310.315H1784.9L1784.83 310.178Z" fill="#EFEFEF"/>
<path d="M2238.89 316.384C2217.14 316.384 2197.98 311.718 2181.37 302.421C2164.77 293.089 2151.85 279.949 2142.57 262.932C2133.33 245.915 2128.7 225.879 2128.7 202.824V197.506C2128.7 174.451 2133.23 154.415 2142.37 137.398C2151.47 120.381 2164.26 107.241 2180.72 97.9088C2197.19 88.6112 2216.28 83.9453 2238.03 83.9453C2259.79 83.9453 2278.16 88.7485 2294.02 98.3548C2309.87 107.961 2322.25 121.273 2331.04 138.29C2339.87 155.307 2344.27 175.034 2344.27 197.506V216.581H2185.12C2185.7 231.677 2191.29 243.925 2201.86 253.394C2212.43 262.863 2225.39 267.598 2240.66 267.598C2255.93 267.598 2267.7 264.201 2275.06 257.408C2282.39 250.615 2287.98 243.067 2291.8 234.799L2337.21 258.746C2333.09 266.431 2327.16 274.802 2319.35 283.825C2311.54 292.849 2301.21 300.534 2288.25 306.881C2275.33 313.228 2258.87 316.418 2238.89 316.418V316.384ZM2185.57 174.862H2287.85C2286.65 162.134 2281.61 151.944 2272.64 144.259C2263.67 136.574 2251.98 132.732 2237.59 132.732C2223.2 132.732 2210.69 136.574 2201.9 144.259C2193.07 151.944 2187.64 162.168 2185.6 174.862H2185.57Z" fill="#EFEFEF"/>
<path d="M2371.57 310.178V90.1588H2426.23V114.106H2434.17C2437.99 106.73 2444.3 100.28 2453.13 94.8247C2461.96 89.3697 2473.55 86.625 2487.94 86.625C2503.52 86.625 2515.99 89.6441 2525.4 95.7167C2534.81 101.789 2542.01 109.68 2547.02 119.458H2554.96C2559.94 109.989 2567 102.167 2576.13 95.9569C2585.24 89.7471 2598.16 86.6593 2614.93 86.6593C2628.43 86.6593 2640.71 89.5412 2651.75 95.305C2662.77 101.069 2671.6 109.783 2678.21 121.482C2684.82 133.181 2688.13 147.865 2688.13 165.637V310.247H2632.59V169.617C2632.59 157.506 2629.49 148.414 2623.35 142.342C2617.18 136.269 2608.49 133.25 2597.34 133.25C2584.69 133.25 2574.94 137.333 2568.02 145.464C2561.1 153.595 2557.66 165.191 2557.66 180.287V310.281H2502.12V169.651C2502.12 157.54 2499.02 148.449 2492.88 142.376C2486.71 136.303 2478.01 133.284 2466.87 133.284C2454.22 133.284 2444.47 137.367 2437.55 145.498C2430.62 153.629 2427.18 165.225 2427.18 180.321V310.315H2371.64L2371.57 310.178Z" fill="#EFEFEF"/>
<path d="M2830.07 316.384C2808.31 316.384 2788.78 311.958 2771.43 303.072C2754.07 294.187 2740.4 281.321 2730.41 264.476C2720.42 247.63 2715.41 227.354 2715.41 203.716V196.614C2715.41 172.941 2720.39 152.699 2730.41 135.854C2740.4 119.008 2754.07 106.143 2771.43 97.2569C2788.75 88.3711 2808.31 83.9453 2830.07 83.9453C2851.82 83.9453 2871.35 88.3711 2888.71 97.2569C2906.03 106.143 2919.7 119.008 2929.72 135.854C2939.71 152.699 2944.69 172.975 2944.69 196.614V203.716C2944.69 227.388 2939.68 247.63 2929.72 264.476C2919.73 281.321 2906.06 294.187 2888.71 303.072C2871.35 311.958 2851.82 316.384 2830.07 316.384ZM2830.07 266.706C2847.11 266.706 2861.19 261.148 2872.38 250.066C2883.56 238.984 2889.12 223.065 2889.12 202.378V197.952C2889.12 177.264 2883.59 161.345 2872.58 150.263C2861.57 139.182 2847.39 133.624 2830.03 133.624C2812.68 133.624 2798.87 139.182 2787.72 150.263C2776.54 161.345 2770.98 177.264 2770.98 197.952V202.378C2770.98 223.065 2776.54 238.984 2787.72 250.066C2798.9 261.148 2812.99 266.706 2830.03 266.706H2830.07Z" fill="#EFEFEF"/>
<path d="M2973.77 310.177V90.1576H3028.42V114.997H3036.37C3039.61 106.111 3044.96 99.6267 3052.46 95.4754C3059.96 91.3241 3068.69 89.2656 3078.68 89.2656H3105.13V138.944H3077.79C3063.68 138.944 3052.08 142.718 3042.98 150.266C3033.88 157.814 3029.31 169.41 3029.31 185.089V310.177H2973.77Z" fill="#EFEFEF"/>
<path d="M3150.1 398.9V350.113H3269.12C3277.33 350.113 3281.46 345.687 3281.46 336.802V281.359H3273.52C3271.16 286.403 3267.48 291.412 3262.5 296.455C3257.49 301.498 3250.74 305.615 3242.22 308.875C3233.69 312.134 3222.82 313.746 3209.59 313.746C3192.54 313.746 3177.61 309.835 3164.86 301.979C3152.07 294.156 3142.15 283.281 3135.1 269.386C3128.04 255.491 3124.53 239.503 3124.53 221.491V90.1592H3180.07V217.031C3180.07 233.602 3184.09 246.022 3192.2 254.29C3200.28 262.558 3211.81 266.71 3226.81 266.71C3243.85 266.71 3257.08 261.015 3266.49 249.624C3275.9 238.234 3280.61 222.349 3280.61 201.936V90.1592H3336.15V349.221C3336.15 364.317 3331.75 376.359 3322.92 385.382C3314.09 394.405 3302.32 398.9 3287.66 398.9H3150.13H3150.1Z" fill="#EFEFEF"/>
<path d="M490.196 157.784H308.273V0H249.496V171.198C249.496 189.382 256.69 206.845 269.475 219.71L418.02 369.192L459.58 327.37L349.867 216.966H490.23V157.818L490.196 157.784Z" fill="#EFEFEF"/>
<path d="M30.65 72.6646L140.363 183.069H0V242.216H181.923V400H240.7V228.802C240.7 210.618 233.506 193.155 220.721 180.29L72.2099 30.8428L30.65 72.6646Z" fill="#EFEFEF"/>
</svg>
