<svg width="57" height="67" viewBox="0 0 57 67" fill="none" xmlns="http://www.w3.org/2000/svg">
<path d="M16.3916 -0.000976562L41.3916 -0.000976563V66.999L28.8916 58.9334L16.3916 66.999L16.3916 -0.000976562Z" fill="white"/>
<mask id="mask0_18112_127059" style="mask-type:alpha" maskUnits="userSpaceOnUse" x="16" y="-1" width="26" height="68">
<path d="M16.3916 -0.000976562L41.3916 -0.000976563V66.999L28.8916 58.9334L16.3916 66.999L16.3916 -0.000976562Z" fill="white"/>
</mask>
<g mask="url(#mask0_18112_127059)">
<rect x="16.3916" y="-0.000976562" width="8.33333" height="67" fill="#E52E40"/>
<rect x="24.7256" y="-0.000976562" width="8.33333" height="67" fill="#F6F8FA"/>
<rect x="33.0586" y="-0.000976562" width="8.33333" height="67" fill="#0E6A8E"/>
</g>
<g filter="url(#filter0_i_18112_127059)">
<path d="M28.892 55.159C43.5828 55.159 55.492 43.2498 55.492 28.559C55.492 13.8682 43.5828 1.95898 28.892 1.95898C14.2012 1.95898 2.29199 13.8682 2.29199 28.559C2.29199 43.2498 14.2012 55.159 28.892 55.159Z" fill="#75320C"/>
</g>
<g filter="url(#filter1_ii_18112_127059)">
<path d="M28.9035 54.3188C43.1303 54.3188 54.6634 42.7857 54.6634 28.5588C54.6634 14.332 43.1303 2.79883 28.9035 2.79883C14.6767 2.79883 3.14355 14.332 3.14355 28.5588C3.14355 42.7857 14.6767 54.3188 28.9035 54.3188Z" fill="url(#paint0_linear_18112_127059)"/>
</g>
<g opacity="0.6" filter="url(#filter2_f_18112_127059)">
<path d="M43.3575 28.554C43.2967 36.7396 36.5793 43.3288 28.3506 43.2682C20.1219 43.2076 13.5032 36.5203 13.564 28.3347C13.6249 20.1492 20.3423 13.56 28.5709 13.6206C36.7996 13.6812 43.4183 20.3685 43.3575 28.554Z" stroke="white" stroke-width="0.636361"/>
</g>
<g filter="url(#filter3_i_18112_127059)">
<path d="M28.2642 43.4479C36.5872 43.5092 43.3877 36.8435 43.4493 28.5554C43.5109 20.2673 36.8102 13.5023 28.4872 13.441C20.1642 13.3798 13.3636 20.0454 13.302 28.3335C13.2404 36.6216 19.9411 43.3866 28.2642 43.4479Z" stroke="#96561C" stroke-width="0.8512"/>
</g>
<g filter="url(#filter4_i_18112_127059)">
<path d="M28.2642 43.4484C36.5874 43.5097 43.3882 36.8438 43.4498 28.5554C43.5114 20.2671 36.8105 13.5018 28.4872 13.4405C20.1639 13.3793 13.3631 20.0451 13.3015 28.3335C13.2399 36.6219 19.9409 43.3871 28.2642 43.4484Z" stroke="#75320C" stroke-width="0.852174"/>
</g>
<g filter="url(#filter5_i_18112_127059)">
<path d="M13.2729 39.1269L12.3119 40.1653C11.9851 40.5185 11.9208 41.0397 12.1521 41.461L12.8321 42.6999L11.7887 41.7435C11.4339 41.4183 10.9102 41.3543 10.4868 41.5844L9.24194 42.2612L10.2029 41.2228C10.5298 40.8697 10.5941 40.3485 10.3628 39.9271L9.68275 38.6882L10.7261 39.6446C11.081 39.9699 11.6047 40.0339 12.0281 39.8037L13.2729 39.1269Z" fill="#75320C"/>
</g>
<g filter="url(#filter6_i_18112_127059)">
<path d="M44.7446 38.2363L45.9895 38.9131C46.4128 39.1433 46.9365 39.0793 47.2914 38.754L48.3348 37.7976L47.6547 39.0365C47.4234 39.4579 47.4877 39.9791 47.8146 40.3322L48.7756 41.3706L47.5307 40.6938C47.1073 40.4637 46.5836 40.5277 46.2288 40.8529L45.1854 41.8093L45.8654 40.5704C46.0967 40.1491 46.0324 39.6279 45.7056 39.2747L44.7446 38.2363Z" fill="#75320C"/>
</g>
<g filter="url(#filter7_i_18112_127059)">
<path d="M20.7709 47.5415C20.6461 47.7959 20.4714 47.9845 20.2468 48.1074C20.0241 48.2312 19.7667 48.2857 19.4747 48.2708C19.1826 48.2559 18.8721 48.1686 18.5432 48.0088C18.3252 47.9029 18.1372 47.7835 17.9791 47.6505C17.821 47.5176 17.6949 47.377 17.6008 47.2287L17.7729 46.9826C17.8211 47.0646 17.8785 47.1426 17.9453 47.2166C18.0121 47.2905 18.0882 47.358 18.1736 47.419C18.259 47.48 18.3522 47.5351 18.4533 47.5842C18.6376 47.6737 18.8189 47.7166 18.9974 47.713C19.1768 47.7073 19.3425 47.6522 19.4943 47.5477C19.6472 47.4413 19.7743 47.2845 19.8759 47.0774C19.9939 46.8368 20.0479 46.6042 20.0378 46.3795C20.0297 46.1558 19.9612 45.9528 19.8322 45.7705C19.7062 45.5872 19.5253 45.4383 19.2895 45.3237L19.0576 45.2111L17.4183 48.5539C17.397 48.5973 17.3905 48.6405 17.3988 48.6836C17.4081 48.7248 17.436 48.7628 17.4827 48.7977L17.7239 48.9588C17.7716 48.9917 17.8 49.0263 17.8092 49.0625C17.8194 49.0968 17.8134 49.1366 17.7912 49.1819C17.7708 49.2233 17.7395 49.2496 17.6972 49.2608C17.6549 49.272 17.6021 49.2622 17.5387 49.2314L15.9871 48.4778C15.9256 48.4479 15.8864 48.413 15.8692 48.3729C15.852 48.3328 15.8536 48.2921 15.8739 48.2506C15.9107 48.1757 15.9784 48.1451 16.0772 48.1589L16.2611 48.2043C16.3183 48.2125 16.3656 48.2087 16.403 48.1926C16.4423 48.1775 16.4726 48.1483 16.4938 48.1049L18.0346 44.9633C18.0558 44.9199 18.0604 44.8781 18.0481 44.838C18.0379 44.7988 18.0119 44.7593 17.9701 44.7195L17.821 44.6031C17.7494 44.5341 17.7319 44.4622 17.7687 44.3872C17.7899 44.3438 17.8212 44.3175 17.8626 44.3083C17.9049 44.2971 17.9567 44.3064 18.0182 44.3363L19.4598 45.0365C19.8938 45.2473 20.2314 45.4919 20.4728 45.7703C20.7151 46.0467 20.8604 46.3383 20.9087 46.6451C20.96 46.9508 20.914 47.2496 20.7709 47.5415Z" fill="#75320C"/>
<path d="M24.1473 49.4733C24.1176 49.588 24.0614 49.6688 23.9787 49.7156C23.8987 49.7608 23.7957 49.7673 23.6697 49.735L21.671 49.2229L21.7353 48.9743L23.0486 49.3107C23.1575 49.3386 23.2246 49.3037 23.2499 49.206C23.3224 48.9254 23.3259 48.7008 23.2602 48.5322C23.1951 48.3614 23.0761 48.2539 22.9031 48.2095C22.7707 48.1756 22.6428 48.1859 22.5194 48.2404C22.3966 48.2928 22.2857 48.3868 22.1869 48.5223C22.0908 48.6563 22.0155 48.8285 21.9611 49.0389C21.8544 49.4512 21.8716 49.7853 22.0126 50.0413C22.1542 50.2951 22.3851 50.463 22.7054 50.5451C22.8933 50.5932 23.0684 50.5984 23.2308 50.5607C23.3931 50.523 23.5313 50.4462 23.6455 50.3304C23.6949 50.2978 23.7333 50.277 23.7607 50.2682C23.788 50.2593 23.8134 50.2579 23.8369 50.2639C23.8711 50.2727 23.8915 50.2949 23.8982 50.3306C23.9076 50.3647 23.9055 50.4038 23.8918 50.4479C23.8371 50.6242 23.7301 50.7736 23.5709 50.896C23.4123 51.0162 23.2198 51.0961 22.9933 51.1355C22.7673 51.1728 22.5219 51.1575 22.2571 51.0896C21.9475 51.0103 21.6893 50.8773 21.4826 50.6907C21.2764 50.5019 21.1344 50.2763 21.0565 50.0139C20.9792 49.7493 20.9802 49.464 21.0593 49.158C21.1429 48.835 21.2809 48.5655 21.4733 48.3497C21.6679 48.1344 21.904 47.9876 22.1816 47.9091C22.4619 47.8291 22.7696 47.832 23.1049 47.9179C23.391 47.9913 23.6221 48.106 23.798 48.2621C23.9745 48.4161 24.0914 48.5978 24.1488 48.8074C24.2088 49.0154 24.2083 49.2374 24.1473 49.4733Z" fill="#75320C"/>
<path d="M28.0237 49.8774C28.0146 49.9956 27.9735 50.0849 27.9003 50.1454C27.8295 50.2038 27.7292 50.2281 27.5995 50.2182L25.5415 50.0614L25.5612 49.8054L26.9134 49.9084C27.0255 49.917 27.0855 49.8709 27.0932 49.7702C27.1154 49.4814 27.0794 49.2597 26.9851 49.105C26.891 48.9482 26.7549 48.863 26.5768 48.8494C26.4405 48.8391 26.3164 48.8714 26.2045 48.9465C26.0927 49.0195 26.0001 49.1313 25.9266 49.2819C25.8554 49.4306 25.8115 49.6132 25.7949 49.8298C25.7622 50.2543 25.8378 50.5803 26.0215 50.8078C26.2055 51.0331 26.4623 51.1583 26.7921 51.1834C26.9856 51.1982 27.1589 51.1728 27.3121 51.1075C27.4653 51.0421 27.588 50.9425 27.6801 50.8087C27.723 50.7679 27.7572 50.7408 27.7826 50.7273C27.8079 50.7139 27.8327 50.708 27.8569 50.7099C27.8921 50.7126 27.9161 50.7309 27.929 50.7649C27.9442 50.7969 27.9489 50.8357 27.9432 50.8815C27.9203 51.0647 27.8412 51.2303 27.706 51.3785C27.5709 51.5245 27.3953 51.6365 27.1792 51.7147C26.9633 51.7907 26.719 51.8183 26.4463 51.7976C26.1275 51.7733 25.85 51.6872 25.6137 51.5393C25.3775 51.3893 25.1981 51.1919 25.0754 50.947C24.9528 50.7 24.9037 50.4189 24.9279 50.1038C24.9535 49.7712 25.0421 49.482 25.1937 49.236C25.3475 48.9902 25.5542 48.8046 25.8137 48.6791C26.0756 48.5516 26.3792 48.501 26.7244 48.5272C27.019 48.5497 27.2666 48.6225 27.4672 48.7456C27.668 48.8665 27.815 49.0252 27.9083 49.2216C28.0039 49.4159 28.0424 49.6346 28.0237 49.8774Z" fill="#75320C"/>
<path d="M30.0607 49.9904C30.0333 49.6711 30.0555 49.4006 30.1272 49.1786C30.2009 48.9543 30.3067 48.7823 30.4448 48.6627C30.5826 48.5409 30.7361 48.4728 30.9053 48.4584C31.1162 48.4405 31.2839 48.4868 31.4085 48.5974C31.5328 48.7057 31.6046 48.8714 31.6237 49.0945C31.6404 49.2891 31.6123 49.439 31.5395 49.5443C31.4664 49.6474 31.3651 49.7045 31.2355 49.7155C31.1037 49.7267 30.9996 49.7003 30.9233 49.6363C30.8492 49.5721 30.8068 49.4777 30.7961 49.3531L30.7857 49.2317C30.7799 49.1639 30.7591 49.115 30.7233 49.085C30.6895 49.0527 30.6386 49.0394 30.5705 49.0452C30.4914 49.0519 30.4183 49.09 30.3513 49.1596C30.2862 49.2268 30.2372 49.3267 30.2044 49.4595C30.1715 49.5922 30.1637 49.7592 30.1809 49.9603L30.0607 49.9904ZM30.0219 48.7647L30.1413 49.4979L30.2861 51.187C30.2914 51.2482 30.3074 51.2931 30.3342 51.3217C30.3608 51.348 30.4086 51.3638 30.4777 51.369L30.7617 51.3911C30.8152 51.3953 30.8551 51.4085 30.8813 51.4305C30.9097 51.4523 30.9257 51.484 30.9293 51.5255C30.933 51.5692 30.9195 51.6056 30.8888 51.6347C30.8601 51.6613 30.815 51.6773 30.7535 51.6825L29.2145 51.8132C29.1508 51.8186 29.1036 51.8105 29.073 51.7889C29.0422 51.7651 29.025 51.7324 29.0214 51.6909C29.0186 51.6581 29.026 51.6288 29.0437 51.6031C29.0615 51.5773 29.0906 51.5561 29.1312 51.5395L29.2567 51.4925C29.2951 51.476 29.3229 51.4516 29.34 51.4193C29.357 51.3849 29.3626 51.3337 29.3568 51.2659L29.197 49.403C29.1921 49.3461 29.1799 49.3064 29.1602 49.2839C29.1406 49.2613 29.1107 49.2484 29.0706 49.2452L28.8978 49.2434C28.8553 49.2382 28.8244 49.2265 28.8052 49.2083C28.7859 49.1901 28.775 49.1657 28.7723 49.1351C28.7692 49.0979 28.7776 49.0675 28.7977 49.0438C28.8198 49.0177 28.8585 48.9912 28.9137 48.9645L29.4884 48.6977C29.5947 48.6468 29.6725 48.6127 29.7219 48.5952C29.7735 48.5776 29.8136 48.5676 29.8422 48.5652C29.8905 48.5611 29.9282 48.5744 29.9552 48.6052C29.9843 48.6357 30.0066 48.6889 30.0219 48.7647Z" fill="#75320C"/>
<path d="M33.0097 46.5751L33.8887 50.6294C33.9031 50.6959 33.9224 50.7434 33.9466 50.7719C33.9726 50.7978 34.0063 50.813 34.0479 50.8175L34.1777 50.8233C34.2219 50.8295 34.2563 50.8423 34.2808 50.8618C34.307 50.8786 34.3238 50.9042 34.3313 50.9385C34.3401 50.9793 34.3322 51.0157 34.3076 51.048C34.2847 51.0776 34.242 51.0991 34.1795 51.1125L32.9056 51.3861C32.8431 51.3995 32.7953 51.3974 32.7622 51.3798C32.7286 51.3601 32.7074 51.3298 32.6985 51.2891C32.6915 51.2569 32.6952 51.2269 32.7095 51.1992C32.7238 51.1714 32.75 51.1467 32.7881 51.125L32.9066 51.0626C32.9426 51.0414 32.967 51.0137 32.9799 50.9795C32.9923 50.9431 32.9913 50.8917 32.9769 50.8252L32.2166 47.3179C32.2045 47.2621 32.1873 47.2243 32.1649 47.2044C32.1421 47.1823 32.1116 47.172 32.0736 47.1735L31.8995 47.1974C31.8588 47.1972 31.8267 47.1895 31.8031 47.1743C31.7817 47.1587 31.7675 47.1348 31.7605 47.1026C31.753 47.0683 31.7578 47.0381 31.7747 47.012C31.7911 46.9838 31.8261 46.9527 31.8797 46.9188L32.4304 46.5715C32.5074 46.5213 32.5694 46.4844 32.6162 46.4609C32.6651 46.4369 32.7079 46.421 32.7445 46.4132C32.8178 46.3974 32.877 46.4049 32.922 46.4357C32.967 46.4664 32.9963 46.5129 33.0097 46.5751Z" fill="#75320C"/>
<path d="M35.3788 47.6686L36.127 49.9879C36.1479 50.0527 36.1718 50.098 36.1987 50.124C36.227 50.1472 36.2621 50.1591 36.3039 50.1595L36.4337 50.1526C36.4783 50.1545 36.5138 50.1639 36.5401 50.1809C36.5678 50.1951 36.5871 50.2189 36.5979 50.2523C36.6107 50.292 36.6064 50.3291 36.5851 50.3636C36.5653 50.3953 36.5249 50.4208 36.464 50.4403L35.2232 50.8367C35.1623 50.8562 35.1145 50.8588 35.0798 50.8445C35.0444 50.8282 35.0203 50.8001 35.0075 50.7604C34.9974 50.7291 34.9981 50.6989 35.0096 50.6699C35.021 50.6409 35.0447 50.6137 35.0805 50.5884L35.1922 50.5147C35.226 50.4901 35.2476 50.4602 35.2571 50.4249C35.2658 50.3875 35.2598 50.3364 35.2389 50.2716L34.6626 48.4851C34.6451 48.4308 34.6242 48.3948 34.6 48.3772C34.5751 48.3575 34.5428 48.3506 34.503 48.3564L34.3352 48.3962C34.2926 48.4005 34.2598 48.396 34.237 48.3826C34.2141 48.3691 34.1976 48.3468 34.1875 48.3154C34.1767 48.282 34.1785 48.2515 34.1927 48.2239C34.2063 48.1942 34.2381 48.1598 34.288 48.1208L34.8019 47.7215C34.8737 47.664 34.9317 47.6213 34.9759 47.5933C35.0223 47.5647 35.0633 47.5447 35.099 47.5333C35.1703 47.5105 35.2299 47.5122 35.2778 47.5384C35.3256 47.5646 35.3593 47.608 35.3788 47.6686ZM34.6419 47.1503C34.474 47.204 34.3247 47.2044 34.1942 47.1516C34.0651 47.0961 33.978 46.9983 33.9329 46.8583C33.8877 46.7183 33.902 46.5904 33.9758 46.4746C34.0511 46.3561 34.1727 46.27 34.3407 46.2163C34.5107 46.162 34.661 46.1612 34.7915 46.214C34.9213 46.2648 35.0088 46.3601 35.054 46.5001C35.0992 46.6401 35.0845 46.7704 35.0099 46.891C34.9347 47.0096 34.812 47.096 34.6419 47.1503Z" fill="#75320C"/>
<path d="M37.3551 46.9557C37.2171 47.0195 37.1254 47.1042 37.0799 47.2099C37.0355 47.3127 37.0379 47.4169 37.0871 47.5224C37.1168 47.586 37.1582 47.6383 37.2113 47.6791C37.2664 47.719 37.3451 47.7418 37.4476 47.7477C37.55 47.7536 37.6886 47.738 37.8633 47.7008C38.203 47.6212 38.4791 47.5903 38.6917 47.6082C38.9063 47.6252 39.0758 47.6811 39.2003 47.776C39.3239 47.8689 39.4219 47.9929 39.4944 48.1482C39.6235 48.4248 39.6276 48.6915 39.5067 48.9482C39.3869 49.202 39.139 49.4158 38.763 49.5896C38.631 49.6506 38.5164 49.689 38.4193 49.7049C38.3251 49.7218 38.2459 49.7318 38.1816 49.7349C38.1174 49.738 38.0643 49.7492 38.0223 49.7686C37.9803 49.788 37.9514 49.8147 37.9357 49.8486C37.9199 49.8825 37.9051 49.916 37.8913 49.949C37.8785 49.9839 37.852 50.0107 37.812 50.0291C37.776 50.0458 37.7429 50.0478 37.7127 50.0351C37.6854 50.0235 37.6517 49.9956 37.6116 49.9512L37.1363 49.4486C37.0789 49.3881 37.0449 49.3336 37.0345 49.2852C37.0231 49.2348 37.0353 49.1905 37.0709 49.1522C37.1086 49.113 37.1486 49.0945 37.1909 49.0967C37.2343 49.096 37.2822 49.1126 37.3345 49.1465C37.496 49.2582 37.6486 49.3377 37.7922 49.385C37.937 49.4294 38.0751 49.4466 38.2066 49.4367C38.3401 49.4258 38.4668 49.3926 38.5868 49.3371C38.7588 49.2576 38.8705 49.1636 38.922 49.0551C38.9755 48.9457 38.9753 48.8333 38.9214 48.7179C38.8889 48.6482 38.8417 48.5938 38.7797 48.5547C38.7177 48.5157 38.6265 48.4949 38.5062 48.4924C38.386 48.4899 38.2231 48.5108 38.0176 48.555C37.7316 48.6194 37.4911 48.6434 37.2963 48.627C37.1034 48.6097 36.9437 48.5541 36.8172 48.4601C36.6918 48.3632 36.5905 48.2322 36.5134 48.067C36.4326 47.8938 36.407 47.7218 36.4366 47.5508C36.4653 47.3778 36.543 47.2186 36.6695 47.073C36.7951 46.9254 36.9639 46.8026 37.1759 46.7046C37.3119 46.6417 37.4265 46.6033 37.5196 46.5893C37.6148 46.5743 37.6944 46.5678 37.7585 46.5696C37.8216 46.5695 37.8762 46.5588 37.9222 46.5375C37.9702 46.5153 38.0026 46.4858 38.0194 46.449C38.0354 46.4102 38.0508 46.3728 38.0656 46.3369C38.0805 46.301 38.1069 46.2743 38.1449 46.2567C38.1749 46.2429 38.205 46.2423 38.2352 46.2549C38.2674 46.2666 38.3006 46.2961 38.3348 46.3432L38.7465 46.8425C38.7968 46.9087 38.8282 46.9656 38.8407 47.0131C38.8522 47.0586 38.8391 47.1009 38.8015 47.1401C38.7638 47.1793 38.7229 47.1957 38.6787 47.1896C38.6345 47.1834 38.5814 47.1608 38.5194 47.1217C38.2989 46.9671 38.0892 46.8825 37.8904 46.868C37.6935 46.8525 37.5151 46.8817 37.3551 46.9557Z" fill="#75320C"/>
<path d="M39.2387 46.1229L39.0874 46.1688C39.0315 46.1837 38.9883 46.1879 38.9578 46.1813C38.928 46.1717 38.9042 46.153 38.8863 46.1253C38.8625 46.0884 38.8566 46.053 38.8688 46.0191C38.8817 45.9822 38.9094 45.9501 38.9521 45.9228L39.1218 45.8142C39.1663 45.7857 39.198 45.7537 39.217 45.7181C39.2378 45.6813 39.2496 45.6306 39.2525 45.5662L39.2783 44.9548C39.2851 44.8801 39.2989 44.8203 39.3199 44.7756C39.3427 44.7297 39.3726 44.6949 39.4097 44.6712C39.4486 44.6463 39.4876 44.6396 39.5266 44.6512C39.5643 44.661 39.5981 44.6889 39.6279 44.7351L41.1573 47.1025C41.2408 47.2317 41.3296 47.3144 41.4238 47.3507C41.518 47.3869 41.6115 47.3754 41.7042 47.316C41.7728 47.2721 41.8167 47.2245 41.836 47.173C41.857 47.1204 41.8674 47.0695 41.867 47.0201C41.8666 46.9708 41.8682 46.9267 41.8719 46.8878C41.8763 46.8459 41.8952 46.8142 41.9285 46.7929C41.9564 46.7751 41.9846 46.7701 42.0132 46.7779C42.0418 46.7856 42.0704 46.8117 42.0991 46.856C42.1652 46.9624 42.1931 47.0828 42.1829 47.2171C42.1746 47.3503 42.1277 47.4847 42.0423 47.6202C41.9575 47.7527 41.8381 47.8682 41.6842 47.9667C41.4467 48.1186 41.2222 48.1788 41.0105 48.1473C40.7976 48.114 40.613 47.9764 40.4568 47.7346L39.473 46.2117C39.442 46.1637 39.4085 46.1343 39.3726 46.1233C39.3386 46.1112 39.2939 46.1111 39.2387 46.1229ZM39.8404 45.7457L39.6615 45.4688L40.5852 44.8778C40.6297 44.8493 40.67 44.8366 40.706 44.8396C40.7409 44.8408 40.769 44.858 40.7905 44.8913C40.8227 44.9411 40.8254 44.9981 40.7987 45.0621C40.7719 45.1262 40.7038 45.1933 40.5944 45.2633L39.8404 45.7457Z" fill="#75320C"/>
</g>
<g filter="url(#filter8_i_18112_127059)">
<path d="M11.4415 33.681L7.34949 34.6632L6.95834 33.0462C6.89816 32.8007 6.89215 32.5611 6.9463 32.3455C7.00046 32.1239 7.10276 31.9383 7.2532 31.7826C7.40966 31.6269 7.61426 31.5191 7.867 31.4592L7.94523 31.4412C8.19797 31.3813 8.43266 31.3873 8.64327 31.4592C8.85389 31.5311 9.03442 31.6508 9.17884 31.8185C9.32326 31.9922 9.42556 32.1958 9.48574 32.4414L9.72645 33.4295L11.297 33.0522L11.4475 33.681H11.4415ZM9.14274 33.5672L8.92008 32.639C8.86593 32.4174 8.76363 32.2557 8.61319 32.1539C8.46274 32.0521 8.28823 32.0221 8.08363 32.07L8.02346 32.082C7.81886 32.1299 7.66842 32.2377 7.58417 32.3934C7.49993 32.5492 7.48187 32.7468 7.53603 32.9684L7.75868 33.8906L9.1307 33.5613L9.14274 33.5672Z" fill="#75320C"/>
</g>
<g filter="url(#filter9_i_18112_127059)">
<path d="M10.6477 29.9266L6.43536 29.9984L6.40527 28.2377C6.40527 27.9802 6.44138 27.7466 6.53164 27.549C6.61589 27.3514 6.74828 27.1957 6.91075 27.0819C7.07925 26.9681 7.27783 26.9082 7.51252 26.9082H7.57871C7.84348 26.9082 8.0541 26.9621 8.21658 27.0879C8.37905 27.2136 8.49339 27.3633 8.55958 27.543H8.65586C8.65586 27.3873 8.71002 27.2675 8.80029 27.1717C8.89055 27.0759 9.02896 27.028 9.20347 27.028L10.5996 27.004L10.6116 27.6568L9.30577 27.6808C9.19745 27.6808 9.1132 27.7107 9.04701 27.7706C8.98082 27.8245 8.95073 27.9203 8.95674 28.0401L8.98081 29.3157L10.6417 29.2858L10.6537 29.9325L10.6477 29.9266ZM8.38507 29.3157L8.36702 28.2736C8.36702 28.0401 8.30082 27.8664 8.18047 27.7406C8.06012 27.6149 7.89764 27.555 7.69304 27.555H7.6449C7.4403 27.555 7.27783 27.6269 7.16349 27.7526C7.04916 27.8784 6.98898 28.064 6.995 28.2976L7.01305 29.3397L8.38507 29.3157Z" fill="#75320C"/>
</g>
<g filter="url(#filter10_i_18112_127059)">
<path d="M11.1109 24.3809C11.0026 24.884 10.774 25.2553 10.4249 25.4889C10.0759 25.7224 9.63663 25.7823 9.09504 25.6685L8.13222 25.4649C7.59665 25.3511 7.21754 25.1116 6.99489 24.7582C6.77224 24.3989 6.71808 23.9677 6.8264 23.4646C6.93472 22.9616 7.16339 22.5903 7.51241 22.3507C7.86143 22.1112 8.30673 22.0513 8.8423 22.1651L9.80512 22.3687C10.3407 22.4825 10.7198 22.722 10.9425 23.0814C11.1651 23.4407 11.2193 23.8719 11.1109 24.3749V24.3809ZM10.5393 24.2552C10.6115 23.9318 10.5694 23.6623 10.4129 23.4467C10.2625 23.2311 10.0218 23.0874 9.69079 23.0155L8.67983 22.7999C8.34886 22.728 8.07205 22.764 7.84338 22.8957C7.61471 23.0275 7.46427 23.261 7.39807 23.5844C7.33188 23.9018 7.374 24.1653 7.52444 24.3869C7.67488 24.6085 7.91559 24.7522 8.24656 24.8241L9.25752 25.0397C9.58849 25.1116 9.8653 25.0756 10.094 24.9379C10.3226 24.8001 10.4731 24.5726 10.5393 24.2552Z" fill="#75320C"/>
</g>
<g filter="url(#filter11_i_18112_127059)">
<path d="M12.3084 20.7514C12.1279 21.1287 11.8812 21.3862 11.5622 21.5119C11.2433 21.6377 10.8883 21.6078 10.5031 21.4281L10.1782 21.2784L10.455 20.6915L10.7799 20.8412C10.9845 20.937 11.1711 20.955 11.3456 20.9011C11.5201 20.8472 11.6525 20.7154 11.7548 20.5058C11.8511 20.3022 11.8631 20.1225 11.7849 19.9728C11.7127 19.8171 11.5682 19.6973 11.3636 19.5955L9.22739 18.6014L8.91447 19.2662L8.37891 19.0146L9.1612 17.3438L9.69677 17.5893L9.49818 18.0145L11.6344 19.0086C12.0316 19.1943 12.2843 19.4338 12.3987 19.7393C12.513 20.0387 12.4829 20.3801 12.3024 20.7514H12.3084Z" fill="#75320C"/>
</g>
<g filter="url(#filter12_i_18112_127059)">
<path d="M13.5006 18.3256L10.1367 15.8043L11.7314 13.6963L12.2008 14.0496L10.9972 15.6426L11.9601 16.3673L13.0673 14.906L13.5367 15.2594L12.4294 16.7146L13.4163 17.4513L14.6379 15.8343L15.1073 16.1876L13.4946 18.3196L13.5006 18.3256Z" fill="#75320C"/>
</g>
<g filter="url(#filter13_i_18112_127059)">
<path d="M16.9897 14.5594C16.5986 14.8947 16.1954 15.0504 15.7802 15.0265C15.365 15.0025 14.9738 14.7809 14.6128 14.3677L13.9689 13.6251C13.6078 13.2119 13.4514 12.7987 13.4875 12.3794C13.5236 11.9662 13.7402 11.5889 14.1314 11.2595C14.5165 10.9302 14.9016 10.7864 15.2928 10.8164C15.6839 10.8523 16.039 11.0499 16.3579 11.4152L16.382 11.4452L15.8945 11.8644L15.8584 11.8225C15.6719 11.6069 15.4613 11.4811 15.2266 11.4452C14.9919 11.4093 14.7512 11.4931 14.5105 11.7027C14.2698 11.9123 14.1434 12.1459 14.1314 12.4094C14.1193 12.6729 14.2277 12.9364 14.4563 13.1939L15.1183 13.9545C15.3409 14.212 15.5816 14.3557 15.8524 14.3857C16.1172 14.4156 16.3699 14.3258 16.6167 14.1162C16.8574 13.9126 16.9777 13.691 16.9717 13.4514C16.9717 13.2119 16.8754 12.9903 16.6949 12.7747L16.6287 12.6968L17.1161 12.2776L17.1703 12.3435C17.4892 12.7088 17.6336 13.0861 17.6096 13.4754C17.5855 13.8647 17.3809 14.224 16.9958 14.5534L16.9897 14.5594Z" fill="#75320C"/>
</g>
<g filter="url(#filter14_i_18112_127059)">
<path d="M19.7646 12.5165L18.0315 9.34844L16.8942 9.96529L16.6113 9.45025L19.4516 7.91113L19.7345 8.42617L18.5971 9.04301L20.3302 12.2111L19.7585 12.5225L19.7646 12.5165Z" fill="#75320C"/>
</g>
<g filter="url(#filter15_i_18112_127059)">
<path d="M25.4695 10.5463C24.958 10.6361 24.5308 10.5702 24.1757 10.3367C23.8207 10.1091 23.5981 9.71984 23.5018 9.18683L23.3273 8.22264C23.231 7.68365 23.3032 7.24646 23.5499 6.9051C23.7966 6.56374 24.1757 6.34815 24.6872 6.25831C25.1987 6.16848 25.626 6.23436 25.981 6.46792C26.3361 6.6955 26.5587 7.08477 26.661 7.61777L26.8355 8.58196C26.9318 9.12096 26.8596 9.55814 26.6069 9.8995C26.3541 10.2409 25.975 10.4565 25.4695 10.5463ZM25.3672 9.97137C25.6922 9.91148 25.9269 9.77373 26.0713 9.54616C26.2157 9.32458 26.2578 9.04909 26.1977 8.71971L26.0111 7.7076C25.9509 7.37822 25.8125 7.13268 25.6019 6.97697C25.3913 6.82126 25.1205 6.76736 24.7895 6.82725C24.4706 6.88714 24.2359 7.02488 24.0915 7.25245C23.9471 7.47404 23.8989 7.74952 23.9591 8.0849L24.1457 9.097C24.2058 9.42638 24.3442 9.67193 24.5609 9.82763C24.7775 9.98334 25.0423 10.0372 25.3672 9.97735V9.97137Z" fill="#75320C"/>
</g>
<g filter="url(#filter16_i_18112_127059)">
<path d="M28.1466 10.1452L28.3031 5.95898L30.9027 6.05481L30.8786 6.64171L28.9289 6.56984L28.8808 7.77958L30.674 7.84545L30.65 8.43236L28.8567 8.36648L28.7905 10.1751L28.1406 10.1511L28.1466 10.1452Z" fill="#75320C"/>
</g>
<g filter="url(#filter17_i_18112_127059)">
<path d="M34.2667 11.0557L35.4462 7.64805L34.2246 7.22883L34.4172 6.67188L37.4801 7.71991L37.2876 8.27687L36.066 7.85766L34.8865 11.2653L34.2727 11.0557H34.2667Z" fill="#75320C"/>
</g>
<g filter="url(#filter18_i_18112_127059)">
<path d="M36.8662 12.0555L39.0807 8.49219L39.6343 8.83355L38.6835 10.3607L40.1879 11.289L41.1387 9.76181L41.6923 10.1032L39.4779 13.6665L38.9242 13.3251L39.881 11.786L38.3766 10.8578L37.4198 12.3969L36.8662 12.0555Z" fill="#75320C"/>
</g>
<g filter="url(#filter19_i_18112_127059)">
<path d="M40.3447 14.3784L43.2753 11.3721L45.1829 13.2106L44.7737 13.6298L43.3355 12.2404L42.493 13.1028L43.8109 14.3725L43.4017 14.7917L42.0838 13.5161L41.2233 14.3964L42.6856 15.8038L42.2764 16.223L40.3507 14.3605L40.3447 14.3784Z" fill="#75320C"/>
</g>
<g filter="url(#filter20_i_18112_127059)">
<path d="M44.1602 18.7329L47.6925 16.3613L47.9753 16.9422L44.792 19.0204L44.8341 19.1102L48.5169 18.0681L49.0104 19.0862L45.8872 21.2961L45.9293 21.3799L49.5459 20.2061L49.8288 20.787L45.7608 22.0447L45.2674 21.0266L48.4327 18.7868L48.3905 18.7029L44.6536 19.763L44.1602 18.7389V18.7329Z" fill="#75320C"/>
</g>
<g filter="url(#filter21_i_18112_127059)">
<path d="M46.1572 23.4696L50.2913 22.6611L50.8028 25.2543L50.2251 25.3681L49.84 23.4097L48.6545 23.6433L49.0096 25.4339L48.4319 25.5477L48.0768 23.7571L46.8673 23.9966L47.2584 25.9849L46.6808 26.0987L46.1632 23.4756L46.1572 23.4696Z" fill="#75320C"/>
</g>
<g filter="url(#filter22_i_18112_127059)">
<path d="M46.7409 27.0333L50.9532 27.0693L50.9291 29.7103H50.3394L50.3575 27.7101L49.1479 27.6981L49.1359 29.5247H48.5462L48.5582 27.6921L47.3246 27.6801L47.3065 29.7043H46.7168L46.7409 27.0273V27.0333Z" fill="#75320C"/>
</g>
<g filter="url(#filter23_i_18112_127059)">
<path d="M46.6089 30.6321L50.7249 31.5304L50.5865 32.1592L48.8775 31.7879L48.8594 31.8838L50.2315 33.7822L50.0509 34.6087L48.4322 32.3149L45.9229 33.7702L46.1094 32.9198L48.2035 31.734L48.2276 31.6382L46.4825 31.2549L46.6209 30.6201L46.6089 30.6321Z" fill="#75320C"/>
</g>
<g filter="url(#filter24_i_18112_127059)">
<path d="M19.2368 34.7727V31.084H17.0986V29.1914H19.2368V26.8352H17.0986V24.9426H19.2368V21.2539H21.2222V24.9426H23.5131V21.2539H25.4985V24.9426H27.6367V26.8352H25.4985V29.1914H27.6367V31.084H25.4985V34.7727H23.5131V31.084H21.2222V34.7727H19.2368ZM21.2222 29.1914H23.5131V26.8352H21.2222V29.1914Z" fill="#75320C"/>
<path d="M34.219 35.043C33.2263 35.043 32.3417 34.8628 31.5654 34.5023C30.8017 34.1418 30.2036 33.6268 29.7708 32.9573C29.3381 32.2749 29.1218 31.4638 29.1218 30.5239V30.1763H31.3363V30.466C31.3363 31.2514 31.5972 31.8758 32.119 32.3393C32.6535 32.8028 33.3535 33.0345 34.219 33.0345C35.0844 33.0345 35.759 32.8221 36.2426 32.3972C36.7262 31.9595 36.968 31.4123 36.968 30.7557V30.5819C36.968 30.1184 36.8535 29.745 36.6244 29.4617C36.408 29.1785 36.109 28.9725 35.7271 28.8437C35.3581 28.7021 34.9381 28.6313 34.4672 28.6313H31.909V26.1207L36.4335 23.5521V23.2624H29.4463V21.2539H38.8771V24.2667L34.6008 26.7V26.9897H35.3835C36.0199 26.9897 36.6244 27.1185 37.1971 27.376C37.7826 27.6206 38.2598 28.0004 38.6289 28.5154C38.998 29.0304 39.1826 29.6999 39.1826 30.5239V30.7364C39.1826 31.6119 38.9726 32.3715 38.5526 33.0152C38.1453 33.659 37.5662 34.1611 36.8153 34.5216C36.0771 34.8692 35.2117 35.043 34.219 35.043Z" fill="#75320C"/>
</g>
<defs>
<filter id="filter0_i_18112_127059" x="2.29199" y="1.95898" width="53.5045" height="53.5045" filterUnits="userSpaceOnUse" color-interpolation-filters="sRGB">
<feFlood flood-opacity="0" result="BackgroundImageFix"/>
<feBlend mode="normal" in="SourceGraphic" in2="BackgroundImageFix" result="shape"/>
<feColorMatrix in="SourceAlpha" type="matrix" values="0 0 0 0 0 0 0 0 0 0 0 0 0 0 0 0 0 0 127 0" result="hardAlpha"/>
<feOffset dx="0.304346" dy="0.304346"/>
<feGaussianBlur stdDeviation="0.304346"/>
<feComposite in2="hardAlpha" operator="arithmetic" k2="-1" k3="1"/>
<feColorMatrix type="matrix" values="0 0 0 0 0 0 0 0 0 0 0 0 0 0 0 0 0 0 0.2 0"/>
<feBlend mode="normal" in2="shape" result="effect1_innerShadow_18112_127059"/>
</filter>
<filter id="filter1_ii_18112_127059" x="2.53486" y="1.58144" width="53.3456" height="54.563" filterUnits="userSpaceOnUse" color-interpolation-filters="sRGB">
<feFlood flood-opacity="0" result="BackgroundImageFix"/>
<feBlend mode="normal" in="SourceGraphic" in2="BackgroundImageFix" result="shape"/>
<feColorMatrix in="SourceAlpha" type="matrix" values="0 0 0 0 0 0 0 0 0 0 0 0 0 0 0 0 0 0 127 0" result="hardAlpha"/>
<feOffset dx="1.21739" dy="1.82608"/>
<feGaussianBlur stdDeviation="1.21739"/>
<feComposite in2="hardAlpha" operator="arithmetic" k2="-1" k3="1"/>
<feColorMatrix type="matrix" values="0 0 0 0 1 0 0 0 0 1 0 0 0 0 1 0 0 0 0.35 0"/>
<feBlend mode="normal" in2="shape" result="effect1_innerShadow_18112_127059"/>
<feColorMatrix in="SourceAlpha" type="matrix" values="0 0 0 0 0 0 0 0 0 0 0 0 0 0 0 0 0 0 127 0" result="hardAlpha"/>
<feOffset dx="-0.608693" dy="-1.21739"/>
<feGaussianBlur stdDeviation="1.21739"/>
<feComposite in2="hardAlpha" operator="arithmetic" k2="-1" k3="1"/>
<feColorMatrix type="matrix" values="0 0 0 0 1 0 0 0 0 1 0 0 0 0 1 0 0 0 0.35 0"/>
<feBlend mode="normal" in2="effect1_innerShadow_18112_127059" result="effect2_innerShadow_18112_127059"/>
</filter>
<filter id="filter2_f_18112_127059" x="10.2939" y="10.3506" width="36.3331" height="36.1876" filterUnits="userSpaceOnUse" color-interpolation-filters="sRGB">
<feFlood flood-opacity="0" result="BackgroundImageFix"/>
<feBlend mode="normal" in="SourceGraphic" in2="BackgroundImageFix" result="shape"/>
<feGaussianBlur stdDeviation="1.4756" result="effect1_foregroundBlur_18112_127059"/>
</filter>
<filter id="filter3_i_18112_127059" x="12.876" y="13.0146" width="30.999" height="31.1029" filterUnits="userSpaceOnUse" color-interpolation-filters="sRGB">
<feFlood flood-opacity="0" result="BackgroundImageFix"/>
<feBlend mode="normal" in="SourceGraphic" in2="BackgroundImageFix" result="shape"/>
<feColorMatrix in="SourceAlpha" type="matrix" values="0 0 0 0 0 0 0 0 0 0 0 0 0 0 0 0 0 0 127 0" result="hardAlpha"/>
<feOffset dy="0.243477"/>
<feGaussianBlur stdDeviation="0.152173"/>
<feComposite in2="hardAlpha" operator="arithmetic" k2="-1" k3="1"/>
<feColorMatrix type="matrix" values="0 0 0 0 0 0 0 0 0 0 0 0 0 0 0 0 0 0 0.25 0"/>
<feBlend mode="normal" in2="shape" result="effect1_innerShadow_18112_127059"/>
</filter>
<filter id="filter4_i_18112_127059" x="12.875" y="13.0137" width="31.3053" height="31.1657" filterUnits="userSpaceOnUse" color-interpolation-filters="sRGB">
<feFlood flood-opacity="0" result="BackgroundImageFix"/>
<feBlend mode="normal" in="SourceGraphic" in2="BackgroundImageFix" result="shape"/>
<feColorMatrix in="SourceAlpha" type="matrix" values="0 0 0 0 0 0 0 0 0 0 0 0 0 0 0 0 0 0 127 0" result="hardAlpha"/>
<feOffset dx="0.304346" dy="0.304346"/>
<feGaussianBlur stdDeviation="0.304346"/>
<feComposite in2="hardAlpha" operator="arithmetic" k2="-1" k3="1"/>
<feColorMatrix type="matrix" values="0 0 0 0 0 0 0 0 0 0 0 0 0 0 0 0 0 0 0.2 0"/>
<feBlend mode="normal" in2="shape" result="effect1_innerShadow_18112_127059"/>
</filter>
<filter id="filter5_i_18112_127059" x="9.24219" y="38.6885" width="4.33462" height="4.31607" filterUnits="userSpaceOnUse" color-interpolation-filters="sRGB">
<feFlood flood-opacity="0" result="BackgroundImageFix"/>
<feBlend mode="normal" in="SourceGraphic" in2="BackgroundImageFix" result="shape"/>
<feColorMatrix in="SourceAlpha" type="matrix" values="0 0 0 0 0 0 0 0 0 0 0 0 0 0 0 0 0 0 127 0" result="hardAlpha"/>
<feOffset dx="0.304346" dy="0.304346"/>
<feGaussianBlur stdDeviation="0.304346"/>
<feComposite in2="hardAlpha" operator="arithmetic" k2="-1" k3="1"/>
<feColorMatrix type="matrix" values="0 0 0 0 0 0 0 0 0 0 0 0 0 0 0 0 0 0 0.2 0"/>
<feBlend mode="normal" in2="shape" result="effect1_innerShadow_18112_127059"/>
</filter>
<filter id="filter6_i_18112_127059" x="44.7441" y="37.7979" width="4.3356" height="4.31607" filterUnits="userSpaceOnUse" color-interpolation-filters="sRGB">
<feFlood flood-opacity="0" result="BackgroundImageFix"/>
<feBlend mode="normal" in="SourceGraphic" in2="BackgroundImageFix" result="shape"/>
<feColorMatrix in="SourceAlpha" type="matrix" values="0 0 0 0 0 0 0 0 0 0 0 0 0 0 0 0 0 0 127 0" result="hardAlpha"/>
<feOffset dx="0.304346" dy="0.304346"/>
<feGaussianBlur stdDeviation="0.304346"/>
<feComposite in2="hardAlpha" operator="arithmetic" k2="-1" k3="1"/>
<feColorMatrix type="matrix" values="0 0 0 0 0 0 0 0 0 0 0 0 0 0 0 0 0 0 0.2 0"/>
<feBlend mode="normal" in2="shape" result="effect1_innerShadow_18112_127059"/>
</filter>
<filter id="filter7_i_18112_127059" x="15.8574" y="44.3037" width="26.6315" height="7.81509" filterUnits="userSpaceOnUse" color-interpolation-filters="sRGB">
<feFlood flood-opacity="0" result="BackgroundImageFix"/>
<feBlend mode="normal" in="SourceGraphic" in2="BackgroundImageFix" result="shape"/>
<feColorMatrix in="SourceAlpha" type="matrix" values="0 0 0 0 0 0 0 0 0 0 0 0 0 0 0 0 0 0 127 0" result="hardAlpha"/>
<feOffset dx="0.304346" dy="0.304346"/>
<feGaussianBlur stdDeviation="0.304346"/>
<feComposite in2="hardAlpha" operator="arithmetic" k2="-1" k3="1"/>
<feColorMatrix type="matrix" values="0 0 0 0 0 0 0 0 0 0 0 0 0 0 0 0 0 0 0.2 0"/>
<feBlend mode="normal" in2="shape" result="effect1_innerShadow_18112_127059"/>
</filter>
<filter id="filter8_i_18112_127059" x="6.90918" y="31.4004" width="4.84243" height="3.56704" filterUnits="userSpaceOnUse" color-interpolation-filters="sRGB">
<feFlood flood-opacity="0" result="BackgroundImageFix"/>
<feBlend mode="normal" in="SourceGraphic" in2="BackgroundImageFix" result="shape"/>
<feColorMatrix in="SourceAlpha" type="matrix" values="0 0 0 0 0 0 0 0 0 0 0 0 0 0 0 0 0 0 127 0" result="hardAlpha"/>
<feOffset dx="0.304346" dy="0.304346"/>
<feGaussianBlur stdDeviation="0.304346"/>
<feComposite in2="hardAlpha" operator="arithmetic" k2="-1" k3="1"/>
<feColorMatrix type="matrix" values="0 0 0 0 0 0 0 0 0 0 0 0 0 0 0 0 0 0 0.2 0"/>
<feBlend mode="normal" in2="shape" result="effect1_innerShadow_18112_127059"/>
</filter>
<filter id="filter9_i_18112_127059" x="6.40527" y="26.9082" width="4.55239" height="3.39419" filterUnits="userSpaceOnUse" color-interpolation-filters="sRGB">
<feFlood flood-opacity="0" result="BackgroundImageFix"/>
<feBlend mode="normal" in="SourceGraphic" in2="BackgroundImageFix" result="shape"/>
<feColorMatrix in="SourceAlpha" type="matrix" values="0 0 0 0 0 0 0 0 0 0 0 0 0 0 0 0 0 0 127 0" result="hardAlpha"/>
<feOffset dx="0.304346" dy="0.304346"/>
<feGaussianBlur stdDeviation="0.304346"/>
<feComposite in2="hardAlpha" operator="arithmetic" k2="-1" k3="1"/>
<feColorMatrix type="matrix" values="0 0 0 0 0 0 0 0 0 0 0 0 0 0 0 0 0 0 0.2 0"/>
<feBlend mode="normal" in2="shape" result="effect1_innerShadow_18112_127059"/>
</filter>
<filter id="filter10_i_18112_127059" x="6.77246" y="22.1094" width="4.69692" height="3.91958" filterUnits="userSpaceOnUse" color-interpolation-filters="sRGB">
<feFlood flood-opacity="0" result="BackgroundImageFix"/>
<feBlend mode="normal" in="SourceGraphic" in2="BackgroundImageFix" result="shape"/>
<feColorMatrix in="SourceAlpha" type="matrix" values="0 0 0 0 0 0 0 0 0 0 0 0 0 0 0 0 0 0 127 0" result="hardAlpha"/>
<feOffset dx="0.304346" dy="0.304346"/>
<feGaussianBlur stdDeviation="0.304346"/>
<feComposite in2="hardAlpha" operator="arithmetic" k2="-1" k3="1"/>
<feColorMatrix type="matrix" values="0 0 0 0 0 0 0 0 0 0 0 0 0 0 0 0 0 0 0.2 0"/>
<feBlend mode="normal" in2="shape" result="effect1_innerShadow_18112_127059"/>
</filter>
<filter id="filter11_i_18112_127059" x="8.37891" y="17.3438" width="4.39126" height="4.54946" filterUnits="userSpaceOnUse" color-interpolation-filters="sRGB">
<feFlood flood-opacity="0" result="BackgroundImageFix"/>
<feBlend mode="normal" in="SourceGraphic" in2="BackgroundImageFix" result="shape"/>
<feColorMatrix in="SourceAlpha" type="matrix" values="0 0 0 0 0 0 0 0 0 0 0 0 0 0 0 0 0 0 127 0" result="hardAlpha"/>
<feOffset dx="0.304346" dy="0.304346"/>
<feGaussianBlur stdDeviation="0.304346"/>
<feComposite in2="hardAlpha" operator="arithmetic" k2="-1" k3="1"/>
<feColorMatrix type="matrix" values="0 0 0 0 0 0 0 0 0 0 0 0 0 0 0 0 0 0 0.2 0"/>
<feBlend mode="normal" in2="shape" result="effect1_innerShadow_18112_127059"/>
</filter>
<filter id="filter12_i_18112_127059" x="10.1367" y="13.6963" width="5.27505" height="4.93325" filterUnits="userSpaceOnUse" color-interpolation-filters="sRGB">
<feFlood flood-opacity="0" result="BackgroundImageFix"/>
<feBlend mode="normal" in="SourceGraphic" in2="BackgroundImageFix" result="shape"/>
<feColorMatrix in="SourceAlpha" type="matrix" values="0 0 0 0 0 0 0 0 0 0 0 0 0 0 0 0 0 0 127 0" result="hardAlpha"/>
<feOffset dx="0.304346" dy="0.304346"/>
<feGaussianBlur stdDeviation="0.304346"/>
<feComposite in2="hardAlpha" operator="arithmetic" k2="-1" k3="1"/>
<feColorMatrix type="matrix" values="0 0 0 0 0 0 0 0 0 0 0 0 0 0 0 0 0 0 0.2 0"/>
<feBlend mode="normal" in2="shape" result="effect1_innerShadow_18112_127059"/>
</filter>
<filter id="filter13_i_18112_127059" x="13.4824" y="10.8125" width="4.43423" height="4.52114" filterUnits="userSpaceOnUse" color-interpolation-filters="sRGB">
<feFlood flood-opacity="0" result="BackgroundImageFix"/>
<feBlend mode="normal" in="SourceGraphic" in2="BackgroundImageFix" result="shape"/>
<feColorMatrix in="SourceAlpha" type="matrix" values="0 0 0 0 0 0 0 0 0 0 0 0 0 0 0 0 0 0 127 0" result="hardAlpha"/>
<feOffset dx="0.304346" dy="0.304346"/>
<feGaussianBlur stdDeviation="0.304346"/>
<feComposite in2="hardAlpha" operator="arithmetic" k2="-1" k3="1"/>
<feColorMatrix type="matrix" values="0 0 0 0 0 0 0 0 0 0 0 0 0 0 0 0 0 0 0.2 0"/>
<feBlend mode="normal" in2="shape" result="effect1_innerShadow_18112_127059"/>
</filter>
<filter id="filter14_i_18112_127059" x="16.6113" y="7.91113" width="4.0231" height="4.91567" filterUnits="userSpaceOnUse" color-interpolation-filters="sRGB">
<feFlood flood-opacity="0" result="BackgroundImageFix"/>
<feBlend mode="normal" in="SourceGraphic" in2="BackgroundImageFix" result="shape"/>
<feColorMatrix in="SourceAlpha" type="matrix" values="0 0 0 0 0 0 0 0 0 0 0 0 0 0 0 0 0 0 127 0" result="hardAlpha"/>
<feOffset dx="0.304346" dy="0.304346"/>
<feGaussianBlur stdDeviation="0.304346"/>
<feComposite in2="hardAlpha" operator="arithmetic" k2="-1" k3="1"/>
<feColorMatrix type="matrix" values="0 0 0 0 0 0 0 0 0 0 0 0 0 0 0 0 0 0 0.2 0"/>
<feBlend mode="normal" in2="shape" result="effect1_innerShadow_18112_127059"/>
</filter>
<filter id="filter15_i_18112_127059" x="23.2861" y="6.21973" width="3.89517" height="4.66958" filterUnits="userSpaceOnUse" color-interpolation-filters="sRGB">
<feFlood flood-opacity="0" result="BackgroundImageFix"/>
<feBlend mode="normal" in="SourceGraphic" in2="BackgroundImageFix" result="shape"/>
<feColorMatrix in="SourceAlpha" type="matrix" values="0 0 0 0 0 0 0 0 0 0 0 0 0 0 0 0 0 0 127 0" result="hardAlpha"/>
<feOffset dx="0.304346" dy="0.304346"/>
<feGaussianBlur stdDeviation="0.304346"/>
<feComposite in2="hardAlpha" operator="arithmetic" k2="-1" k3="1"/>
<feColorMatrix type="matrix" values="0 0 0 0 0 0 0 0 0 0 0 0 0 0 0 0 0 0 0.2 0"/>
<feBlend mode="normal" in2="shape" result="effect1_innerShadow_18112_127059"/>
</filter>
<filter id="filter16_i_18112_127059" x="28.1406" y="5.95898" width="3.06607" height="4.52017" filterUnits="userSpaceOnUse" color-interpolation-filters="sRGB">
<feFlood flood-opacity="0" result="BackgroundImageFix"/>
<feBlend mode="normal" in="SourceGraphic" in2="BackgroundImageFix" result="shape"/>
<feColorMatrix in="SourceAlpha" type="matrix" values="0 0 0 0 0 0 0 0 0 0 0 0 0 0 0 0 0 0 127 0" result="hardAlpha"/>
<feOffset dx="0.304346" dy="0.304346"/>
<feGaussianBlur stdDeviation="0.304346"/>
<feComposite in2="hardAlpha" operator="arithmetic" k2="-1" k3="1"/>
<feColorMatrix type="matrix" values="0 0 0 0 0 0 0 0 0 0 0 0 0 0 0 0 0 0 0.2 0"/>
<feBlend mode="normal" in2="shape" result="effect1_innerShadow_18112_127059"/>
</filter>
<filter id="filter17_i_18112_127059" x="34.2246" y="6.67188" width="3.56021" height="4.8981" filterUnits="userSpaceOnUse" color-interpolation-filters="sRGB">
<feFlood flood-opacity="0" result="BackgroundImageFix"/>
<feBlend mode="normal" in="SourceGraphic" in2="BackgroundImageFix" result="shape"/>
<feColorMatrix in="SourceAlpha" type="matrix" values="0 0 0 0 0 0 0 0 0 0 0 0 0 0 0 0 0 0 127 0" result="hardAlpha"/>
<feOffset dx="0.304346" dy="0.304346"/>
<feGaussianBlur stdDeviation="0.304346"/>
<feComposite in2="hardAlpha" operator="arithmetic" k2="-1" k3="1"/>
<feColorMatrix type="matrix" values="0 0 0 0 0 0 0 0 0 0 0 0 0 0 0 0 0 0 0.2 0"/>
<feBlend mode="normal" in2="shape" result="effect1_innerShadow_18112_127059"/>
</filter>
<filter id="filter18_i_18112_127059" x="36.8662" y="8.49219" width="5.13052" height="5.47915" filterUnits="userSpaceOnUse" color-interpolation-filters="sRGB">
<feFlood flood-opacity="0" result="BackgroundImageFix"/>
<feBlend mode="normal" in="SourceGraphic" in2="BackgroundImageFix" result="shape"/>
<feColorMatrix in="SourceAlpha" type="matrix" values="0 0 0 0 0 0 0 0 0 0 0 0 0 0 0 0 0 0 127 0" result="hardAlpha"/>
<feOffset dx="0.304346" dy="0.304346"/>
<feGaussianBlur stdDeviation="0.304346"/>
<feComposite in2="hardAlpha" operator="arithmetic" k2="-1" k3="1"/>
<feColorMatrix type="matrix" values="0 0 0 0 0 0 0 0 0 0 0 0 0 0 0 0 0 0 0.2 0"/>
<feBlend mode="normal" in2="shape" result="effect1_innerShadow_18112_127059"/>
</filter>
<filter id="filter19_i_18112_127059" x="40.3447" y="11.3721" width="5.14224" height="5.15493" filterUnits="userSpaceOnUse" color-interpolation-filters="sRGB">
<feFlood flood-opacity="0" result="BackgroundImageFix"/>
<feBlend mode="normal" in="SourceGraphic" in2="BackgroundImageFix" result="shape"/>
<feColorMatrix in="SourceAlpha" type="matrix" values="0 0 0 0 0 0 0 0 0 0 0 0 0 0 0 0 0 0 127 0" result="hardAlpha"/>
<feOffset dx="0.304346" dy="0.304346"/>
<feGaussianBlur stdDeviation="0.304346"/>
<feComposite in2="hardAlpha" operator="arithmetic" k2="-1" k3="1"/>
<feColorMatrix type="matrix" values="0 0 0 0 0 0 0 0 0 0 0 0 0 0 0 0 0 0 0.2 0"/>
<feBlend mode="normal" in2="shape" result="effect1_innerShadow_18112_127059"/>
</filter>
<filter id="filter20_i_18112_127059" x="44.1602" y="16.3613" width="5.97329" height="5.98794" filterUnits="userSpaceOnUse" color-interpolation-filters="sRGB">
<feFlood flood-opacity="0" result="BackgroundImageFix"/>
<feBlend mode="normal" in="SourceGraphic" in2="BackgroundImageFix" result="shape"/>
<feColorMatrix in="SourceAlpha" type="matrix" values="0 0 0 0 0 0 0 0 0 0 0 0 0 0 0 0 0 0 127 0" result="hardAlpha"/>
<feOffset dx="0.304346" dy="0.304346"/>
<feGaussianBlur stdDeviation="0.304346"/>
<feComposite in2="hardAlpha" operator="arithmetic" k2="-1" k3="1"/>
<feColorMatrix type="matrix" values="0 0 0 0 0 0 0 0 0 0 0 0 0 0 0 0 0 0 0.2 0"/>
<feBlend mode="normal" in2="shape" result="effect1_innerShadow_18112_127059"/>
</filter>
<filter id="filter21_i_18112_127059" x="46.1572" y="22.6611" width="4.94985" height="3.74185" filterUnits="userSpaceOnUse" color-interpolation-filters="sRGB">
<feFlood flood-opacity="0" result="BackgroundImageFix"/>
<feBlend mode="normal" in="SourceGraphic" in2="BackgroundImageFix" result="shape"/>
<feColorMatrix in="SourceAlpha" type="matrix" values="0 0 0 0 0 0 0 0 0 0 0 0 0 0 0 0 0 0 127 0" result="hardAlpha"/>
<feOffset dx="0.304346" dy="0.304346"/>
<feGaussianBlur stdDeviation="0.304346"/>
<feComposite in2="hardAlpha" operator="arithmetic" k2="-1" k3="1"/>
<feColorMatrix type="matrix" values="0 0 0 0 0 0 0 0 0 0 0 0 0 0 0 0 0 0 0.2 0"/>
<feBlend mode="normal" in2="shape" result="effect1_innerShadow_18112_127059"/>
</filter>
<filter id="filter22_i_18112_127059" x="46.7168" y="27.0273" width="4.54067" height="2.98696" filterUnits="userSpaceOnUse" color-interpolation-filters="sRGB">
<feFlood flood-opacity="0" result="BackgroundImageFix"/>
<feBlend mode="normal" in="SourceGraphic" in2="BackgroundImageFix" result="shape"/>
<feColorMatrix in="SourceAlpha" type="matrix" values="0 0 0 0 0 0 0 0 0 0 0 0 0 0 0 0 0 0 127 0" result="hardAlpha"/>
<feOffset dx="0.304346" dy="0.304346"/>
<feGaussianBlur stdDeviation="0.304346"/>
<feComposite in2="hardAlpha" operator="arithmetic" k2="-1" k3="1"/>
<feColorMatrix type="matrix" values="0 0 0 0 0 0 0 0 0 0 0 0 0 0 0 0 0 0 0.2 0"/>
<feBlend mode="normal" in2="shape" result="effect1_innerShadow_18112_127059"/>
</filter>
<filter id="filter23_i_18112_127059" x="45.9229" y="30.6201" width="5.1061" height="4.29263" filterUnits="userSpaceOnUse" color-interpolation-filters="sRGB">
<feFlood flood-opacity="0" result="BackgroundImageFix"/>
<feBlend mode="normal" in="SourceGraphic" in2="BackgroundImageFix" result="shape"/>
<feColorMatrix in="SourceAlpha" type="matrix" values="0 0 0 0 0 0 0 0 0 0 0 0 0 0 0 0 0 0 127 0" result="hardAlpha"/>
<feOffset dx="0.304346" dy="0.304346"/>
<feGaussianBlur stdDeviation="0.304346"/>
<feComposite in2="hardAlpha" operator="arithmetic" k2="-1" k3="1"/>
<feColorMatrix type="matrix" values="0 0 0 0 0 0 0 0 0 0 0 0 0 0 0 0 0 0 0.2 0"/>
<feBlend mode="normal" in2="shape" result="effect1_innerShadow_18112_127059"/>
</filter>
<filter id="filter24_i_18112_127059" x="17.0986" y="21.2539" width="22.3883" height="14.0934" filterUnits="userSpaceOnUse" color-interpolation-filters="sRGB">
<feFlood flood-opacity="0" result="BackgroundImageFix"/>
<feBlend mode="normal" in="SourceGraphic" in2="BackgroundImageFix" result="shape"/>
<feColorMatrix in="SourceAlpha" type="matrix" values="0 0 0 0 0 0 0 0 0 0 0 0 0 0 0 0 0 0 127 0" result="hardAlpha"/>
<feOffset dx="0.304346" dy="0.304346"/>
<feGaussianBlur stdDeviation="0.304346"/>
<feComposite in2="hardAlpha" operator="arithmetic" k2="-1" k3="1"/>
<feColorMatrix type="matrix" values="0 0 0 0 0 0 0 0 0 0 0 0 0 0 0 0 0 0 0.2 0"/>
<feBlend mode="normal" in2="shape" result="effect1_innerShadow_18112_127059"/>
</filter>
<linearGradient id="paint0_linear_18112_127059" x1="8.06209" y1="5.19337" x2="-2.2082" y2="55.0442" gradientUnits="userSpaceOnUse">
<stop stop-color="#F5A410"/>
<stop offset="1" stop-color="#A96620"/>
</linearGradient>
</defs>
</svg>
